<svg id="Layer_1" enable-background="new 0 0 512 512" height="512" viewBox="0 0 512 512" width="512" xmlns="http://www.w3.org/2000/svg"><g><path d="m335.72 50.914-34.726-48.564c-2.24-3.133-6.897-3.133-9.138 0l-34.726 48.564c-22.86 31.97-.008 76.403 39.294 76.403 39.303 0 62.155-44.433 39.296-76.403z" fill="#e1f1ff"/><path d="m46.438 319.289c5.468 4.779 12.622 7.677 20.455 7.677 10.249 0 19.337-4.96 25-12.609 2.056-2.776 6.2-2.776 8.256 0 5.663 7.649 14.752 12.609 25.001 12.609s19.337-4.96 25-12.609c2.056-2.776 6.2-2.776 8.256 0 5.663 7.649 14.752 12.609 25 12.609s19.337-4.959 25.001-12.609c2.056-2.776 6.2-2.776 8.256 0 5.663 7.649 14.751 12.609 25 12.609 4.165 0 8.138-.819 11.767-2.305l50.325 2.331-45.713-108.585-60.056-83.99c-6.769-9.466-20.84-9.466-27.609 0l-104.919 146.735c-8.741 12.225-15.262 25.054-19.758 38.137z" fill="#e1f1ff"/><path d="m241.664 324.906c-10.249 0-19.337-4.959-25-12.609-2.056-2.776-6.2-2.776-8.256 0-5.664 7.649-14.752 12.609-25.001 12.609s-19.337-4.96-25-12.609c-2.056-2.776-6.2-2.776-8.256 0-5.663 7.649-14.752 12.609-25 12.609s-19.337-4.96-25.001-12.609c-2.056-2.776-6.2-2.776-8.256 0-5.663 7.649-14.752 12.609-25 12.609-7.833 0-14.987-2.898-20.455-7.677-32.758 90.786 33.234 194.771 137.744 194.771h.001c78.142 0 134.754-58.137 144.658-125.421l-25.97-61.689-49.441-2.29c-3.63 1.486-7.602 2.306-11.767 2.306z" fill="#cbe2ff"/><path d="m297.532 50.914 19.094-26.703-15.632-21.861c-2.24-3.133-6.898-3.133-9.138 0l-34.726 48.564c-22.86 31.97-.008 76.403 39.294 76.403 7.378 0 14.176-1.566 20.2-4.321-26.068-11.922-37.661-46.113-19.092-72.082z" fill="#bbdafc"/><path d="m46.438 319.289c5.468 4.779 12.622 7.677 20.455 7.677 10.249 0 19.337-4.96 25-12.609 2.056-2.776 6.2-2.776 8.256 0 5.663 7.649 14.752 12.609 25.001 12.609 2.093 0 4.133-.217 6.11-.611 4.448-15.525 11.681-30.783 21.991-45.203l74.829-104.65-30.092-42.085c-6.769-9.466-20.84-9.466-27.609 0l-104.921 146.735c-8.741 12.225-15.262 25.054-19.758 38.137z" fill="#bbdafc"/><path d="m184.183 512c15.562 0 30.265-2.312 43.92-6.536-75.756-23.409-119.125-105.845-96.175-181.312-2.183.486-4.448.754-6.778.754-10.249 0-19.337-4.96-25.001-12.609-2.056-2.776-6.2-2.776-8.256 0-5.663 7.649-14.752 12.609-25 12.609-7.833 0-14.987-2.898-20.455-7.677-32.757 90.786 33.235 194.771 137.745 194.771z" fill="#9dc6fb"/><circle cx="358.604" cy="275.056" fill="#9dc6fb" r="115.405"/><path d="m296.425 275.056c0-54.576 37.886-100.299 88.792-112.316-8.544-2.017-17.453-3.09-26.613-3.09-63.737 0-115.405 51.669-115.405 115.405s51.669 115.405 115.405 115.405c9.16 0 18.069-1.072 26.613-3.089-50.905-12.016-88.792-57.738-88.792-112.315z" fill="#80b4fb"/><g><path d="m390.169 327.168c-14.405 0-26.125-11.72-26.125-26.125s11.72-26.125 26.125-26.125 26.125 11.72 26.125 26.125-11.719 26.125-26.125 26.125zm0-37.25c-6.135 0-11.125 4.99-11.125 11.125s4.99 11.125 11.125 11.125 11.125-4.99 11.125-11.125-4.99-11.125-11.125-11.125z" fill="#eeebee"/></g><g><path d="m321.538 273.282c-14.405 0-26.125-11.72-26.125-26.125s11.72-26.125 26.125-26.125 26.125 11.72 26.125 26.125-11.72 26.125-26.125 26.125zm0-37.25c-6.135 0-11.125 4.99-11.125 11.125s4.99 11.125 11.125 11.125 11.125-4.99 11.125-11.125-4.991-11.125-11.125-11.125z" fill="#eeebee"/></g><g><path d="m326.466 335.736c-3.722-1.818-5.264-6.31-3.445-10.031l53.661-109.796c1.818-3.724 6.311-5.267 10.031-3.445 3.722 1.818 5.264 6.311 3.445 10.031l-53.661 109.796c-1.82 3.726-6.316 5.263-10.031 3.445z" fill="#eeebee"/></g></g></svg>