<svg id="Capa_1" enable-background="new 0 0 512 512" height="512" viewBox="0 0 512 512" width="512" xmlns="http://www.w3.org/2000/svg"><g><path d="m510.142 225c-36.951 12.596-61.792 47.308-61.792 86.348v113.585h.002c-46.917 53.379-115.7 87.067-192.352 87.067-141.2 0-255.701-114.316-255.999-255.446-.301-141.786 113.485-256.158 255.271-256.553 131.22-.365 239.54 97.999 254.87 224.999z" fill="#464646"/><path d="m449.412 256c0 106.818-86.593 193.412-193.412 193.412s-193.412-86.594-193.412-193.412 86.594-193.412 193.412-193.412 193.412 86.594 193.412 193.412z" fill="#5a5a5a"/><path d="m382.884 87.347c-5.925 9.338-18.299 12.105-27.637 6.18-1.274-.809-2.425-1.737-3.449-2.761-10.386 7.694-24.523 9.192-36.511 3.175 2.519 14.013-1.636 28.991-12.467 39.821-13.732 13.732-34.132 16.734-50.779 9.005-.477 12.129-5.345 24.118-14.605 33.379-15.042 15.042-37.282 18.495-55.631 10.363-2.056 3.903-4.726 7.567-8.009 10.85-17.574 17.574-46.066 17.574-63.64 0-5.27-5.27-8.959-11.522-11.068-18.168-9.952.872-20.206-2.5-27.822-10.116-13.668-13.668-13.668-35.829 0-49.498 13.668-13.668 35.829-13.668 49.497 0 1.404 1.404 2.664 2.898 3.78 4.463 9.836-4.128 20.841-4.605 30.948-1.433 2.438-6.256 6.182-12.12 11.234-17.172 2.546-2.546 5.299-4.759 8.204-6.642-2.135-1.495-4.17-3.195-6.076-5.102-17.649-17.648-17.649-46.263 0-63.911 11.531-11.532 27.744-15.528 42.521-11.99 13.995-12.995 35.169-15.939 52.424-6.353 11.23-12.364 30.051-15.241 44.636-5.987 8.46 5.368 13.833 13.764 15.606 22.879 8.539-1.722 17.729-.278 25.665 4.757 8.655 5.492 14.08 14.153 15.723 23.512 3.852-.109 7.778.891 11.277 3.111 9.337 5.926 12.104 18.3 6.179 27.638z" fill="#f44545"/><path d="m235.749 96.691c-13.159 13.159-34.188 13.649-47.934 1.471-1.07 1.285-2.207 2.532-3.412 3.737-3.199 3.199-6.694 5.921-10.396 8.167.895 9.975-2.474 20.26-10.11 27.896-6.151 6.151-14.023 9.534-22.066 10.148 6.463 9.711 5.413 22.945-3.153 31.51-9.763 9.763-25.592 9.763-35.355 0-6.782-6.782-8.853-16.491-6.212-25.061-9.319.29-18.732-3.121-25.844-10.234-13.551-13.551-13.667-35.449-.348-49.144-13.321-13.693-13.205-35.591.346-49.142 7.259-7.259 16.913-10.663 26.418-10.211 2.385-4.19 5.363-8.135 8.938-11.709 17.191-17.19 42.929-20.622 63.533-10.295 13.703-10.185 33.162-9.062 45.595 3.371 6.414 6.414 9.818 14.698 10.212 23.098 3.541 1.673 6.859 3.974 9.788 6.902 13.668 13.667 13.668 35.828 0 49.496z" fill="#fc7979"/><path d="m201.749 8.627c-4.986.881-9.762 2.835-13.96 5.76-5.555 3.87-12.157 6.07-18.926 6.169-18.893.278-37.142 10.292-47.115 27.926-.508.899-.988 1.805-1.441 2.719-3.131 6.327-8.19 11.42-14.253 15.035-5.051 3.011-9.411 7.337-12.513 12.822-6.927 12.248-5.672 26.896 2.015 37.63 4.945 6.906 7.281 15.324 6.602 23.791-1.056 13.16 5.416 26.361 17.664 33.288 6.377 3.606 13.404 4.994 20.19 4.412-.422.493-.867.974-1.334 1.441-9.763 9.763-25.592 9.763-35.355 0-6.782-6.782-8.853-16.491-6.212-25.061-9.319.29-18.732-3.121-25.844-10.234-13.551-13.551-13.667-35.449-.348-49.144-13.321-13.693-13.205-35.591.346-49.142 7.259-7.259 16.913-10.663 26.418-10.211 2.385-4.19 5.363-8.135 8.938-11.709 17.191-17.19 42.929-20.622 63.533-10.295 9.224-6.856 21.055-8.588 31.595-5.197z" fill="#fb5858"/><path d="m450 247v159h-159.04c-4.633 22.822-24.81 40-48.999 40h-109.961c-11.046 0-20-8.954-20-20v-180h139.054l-11.17-15.258 31.72-21.793c3.771-2.59 24.945 1.168 28.417 6.221l16.096 23.249c3.69 5.372 9.79 8.581 16.307 8.581z" fill="#f2bb88"/><path d="m228 278.093c0-4.142 3.358-7.5 7.5-7.5s7.5 3.358 7.5 7.5c0 27.439 32.523 49.763 72.5 49.763 4.142 0 7.5 3.358 7.5 7.5 0 4.143-3.358 7.5-7.5 7.5-22.938 0-44.583-6.45-60.947-18.163-17.123-12.257-26.553-28.806-26.553-46.6zm212 86.907h-137.045c-15.827 0-30.576 8.601-40.147 21.207-9.131 12.026-23.582 19.793-39.847 19.793-11.089 0-20.078-8.989-20.078-20.078v-158.266c0-4.593-4.477-8.317-10-8.317h-35c-5.523 0-10 3.724-10 8.317v178.344h-34.883c-.335 0-.669-.008-1-.025v20.025c0 11.046 8.954 20 20 20h109.961c19.135 0 35.759-10.749 44.164-26.538 4.424-8.311 13.114-13.462 22.529-13.462h131.346c11.046 0 20-8.954 20-20v-41c0 11.046-8.954 20-20 20z" fill="#e3a76f"/><path d="m185 185v307c0 5.523-4.477 10-10 10h-76c-5.523 0-10-4.477-10-10v-307c0-5.523 4.477-10 10-10h76c5.523 0 10 4.477 10 10z" fill="#3493f8"/><path d="m185 185v243.449c0 5.523-4.477 10-10 10h-35c-5.523 0-10-4.477-10-10v-243.449c0-5.523 4.477-10 10-10h35c5.523 0 10 4.477 10 10z" fill="#76b6fa"/><path d="m142 300c11.046 0 20 8.954 20 20v10c0 11.046-8.954 20-20 20 11.046 0 20 8.954 20 20v10c0 11.046-8.954 20-20 20 11.046 0 20 8.954 20 20v10c0 11.046-8.954 20-20 20h-59.412c-11.046 0-20-8.954-20-20v-10c0-11.046 8.954-20 20-20h-15.294c-11.046 0-20-8.954-20-20v-10c0-11.046 8.954-20 20-20h-15.294c-11.046 0-20-8.954-20-20v-10c0-11.046 8.954-20 20-20h15.294c-11.046 0-20-8.954-20-20v-10c0-11.046 8.954-20 20-20h74.706c11.046 0 20 8.954 20 20v10c0 11.046-8.954 20-20 20z" fill="#f2bb88"/><path d="m450 247v44h-158.053c-9.402 0-18.249-4.454-23.848-12.007l-12.172-23.561h-69.927c-16.569 0-30-13.432-30-30 0-11.046 8.954-20 20-20h104.26c9.183 0 17.21 4.951 21.556 12.33l14.302 20.657c3.69 5.372 9.79 8.581 16.307 8.581z" fill="#f2d1a5"/><path d="m302.421 241.542c-4.66 2.329-10.305 1.208-13.723-2.723l-5.65-6.498c-3.258-3.747-7.961-5.922-12.926-5.978l-81.122-.911c-13.248 0-13.49-7.588-17.464-19.5 1.435-.328 2.93-.5 4.464-.5h104.26c9.183 0 17.21 4.951 21.556 12.33l4.89 7.063c3.957 5.715 1.933 13.61-4.285 16.717z" fill="#ffe4c2"/><path d="m161.084 364c-2.549 8.114-10.129 14-19.084 14h-74.706c-8.955 0-16.536-5.886-19.084-14 2.549-8.114 10.129-14 19.084-14h74.706c8.955 0 16.536 5.886 19.084 14zm-93.79-86h74.706c8.955 0 16.536-5.886 19.084-14-2.549-8.114-10.129-14-19.084-14h-74.706c-8.955 0-16.536 5.886-19.084 14 2.549 8.114 10.129 14 19.084 14zm74.706 122h-59.412c-8.955 0-16.536 5.886-19.084 14 2.549 8.114 10.129 14 19.084 14h59.412c8.955 0 16.536-5.886 19.084-14-2.548-8.114-10.129-14-19.084-14zm0-100h-90c-8.955 0-16.536 5.886-19.084 14 2.549 8.114 10.129 14 19.084 14h90c8.955 0 16.536-5.886 19.084-14-2.548-8.114-10.129-14-19.084-14z" fill="#f2d1a5"/><path d="m126.75 262.625h14.125c6.835 0 12.375 5.54 12.375 12.375 0 6.835-5.54 12.375-12.375 12.375h-14.125c-2.209 0-4-1.791-4-4v-16.75c0-2.209 1.791-4 4-4zm-4 54v16.75c0 2.209 1.791 4 4 4h14.125c6.835 0 12.375-5.54 12.375-12.375 0-6.835-5.54-12.375-12.375-12.375h-14.125c-2.209 0-4 1.791-4 4zm0 50v16.75c0 2.209 1.791 4 4 4h14.125c6.835 0 12.375-5.54 12.375-12.375 0-6.835-5.54-12.375-12.375-12.375h-14.125c-2.209 0-4 1.791-4 4zm0 50v16.75c0 2.209 1.791 4 4 4h14.125c6.835 0 12.375-5.54 12.375-12.375 0-6.835-5.54-12.375-12.375-12.375h-14.125c-2.209 0-4 1.791-4 4zm74.25-195.193v-12c0-2.209-1.791-4-4-4h-19.5c-3.866 0-7 3.134-7 7 0 7.18 5.82 13 13 13h13.5c2.209 0 4-1.791 4-4z" fill="#fff2de"/><path d="m490.6 358.625c-10.649 24.308-24.964 46.644-42.248 66.308-10.275-.838-18.352-9.442-18.352-19.933v-46.375z" fill="#ffc14f"/><path d="m512 256c0 38.982-8.713 75.929-24.298 109h-57.702v-120c0-11.046 8.954-20 20-20h60.142c1.227 10.162 1.858 20.507 1.858 31z" fill="#fff36c"/></g></svg>